<?xml version="1.0" encoding="UTF-8" standalone="no"?>
<svg
   xmlns="http://www.w3.org/2000/svg"
   width="64"
   height="64"
   viewBox="0 0 64 64">
   
  <!-- Basketball with transparent background -->
  
  <!-- Main circle - not visible but defines the clipping path -->
  <defs>
    <clipPath id="ballClip">
      <circle cx="32" cy="32" r="28" />
    </clipPath>
  </defs>
  
  <!-- Left half (teal color) -->
  <path d="M 32,4 A 28,28 0 0 0 4,32 A 28,28 0 0 0 32,60 L 32,4 Z" 
        fill="#006272" />
  
  <!-- Right half (orange color) -->
  <path d="M 32,4 A 28,28 0 0 1 60,32 A 28,28 0 0 1 32,60 L 32,4 Z" 
        fill="#F7941D" />
  
  <!-- White lines/seams -->
  <!-- Outer circle -->
  <circle cx="32" cy="32" r="28" fill="none" stroke="white" stroke-width="3" />
  
  <!-- Vertical line -->
  <path d="M 32,4 L 32,60" 
        fill="none" stroke="white" stroke-width="3" />
  
  <!-- Horizontal line -->
  <path d="M 4,32 L 60,32" 
        fill="none" stroke="white" stroke-width="3" />
  
  <!-- Curved seams - smooth curves that look like a basketball -->
  <!-- Leftmost curve -->
  <path d="M 6,14 C 14,20 24,28 32,32" 
        fill="none" stroke="white" stroke-width="3" />
  
  <!-- Left bottom curve -->
  <path d="M 6,50 C 14,44 24,36 32,32" 
        fill="none" stroke="white" stroke-width="3" />
  
  <!-- Right top curve -->
  <path d="M 58,14 C 50,20 40,28 32,32" 
        fill="none" stroke="white" stroke-width="3" />
  
  <!-- Right bottom curve -->
  <path d="M 58,50 C 50,44 40,36 32,32" 
        fill="none" stroke="white" stroke-width="3" />
</svg>