<?xml version="1.0" encoding="UTF-8" standalone="no"?>
<svg
   xmlns="http://www.w3.org/2000/svg"
   width="64"
   height="64"
   viewBox="0 0 64 64">
   
  <!-- Background circle is fully transparent -->
  <circle cx="32" cy="32" r="30" fill="none" />
   
  <!-- Basketball segments -->
  <!-- Top-left teal segment -->
  <path d="M 32,2 C 32,2 29,2 26,3 C 20,4.5 14,8 9.5,12.5 C 8,14 6.5,15.7 5.3,17.5 C 4,19.5 3,21.5 2.3,23.8 C 2,25 2,26 2,27 L
           15,27 C 15,26.5 15,26 15.3,25 C 16,23 17,21 19,19 C 21,17 23,16 25,15.3 C 26,15 26.5,15 27,15 L 27,2 C 27,2 25,2 24,2 C 23,2 22,2 21,2.3 C 18.5,3 16,4 14,5.3
           C 13,6 12,6.8 11,7.8 C 9,9.8 7.3,12 6,14.3 C 5,16 4.3,17.8 3.8,19.8 C 3.2,22 3,24 3,26 C 3,28 3.2,30 3.8,32
           L 32,32 L 32,2 Z" 
     fill="#006272" />
  
  <!-- Top-right orange segment -->
  <path d="M 32,2 C 32,2 35,2 38,3 C 44,4.5 50,8 54.5,12.5 C 56,14 57.5,15.7 58.7,17.5 C 60,19.5 61,21.5 61.7,23.8 C 62,25 62,26 62,27 L
           49,27 C 49,26.5 49,26 48.7,25 C 48,23 47,21 45,19 C 43,17 41,16 39,15.3 C 38,15 37.5,15 37,15 L 37,2 C 37,2 39,2 40,2 C 41,2 42,2 43,2.3 C 45.5,3 48,4 50,5.3
           C 51,6 52,6.8 53,7.8 C 55,9.8 56.7,12 58,14.3 C 59,16 59.7,17.8 60.2,19.8 C 60.8,22 61,24 61,26 C 61,28 60.8,30 60.2,32
           L 32,32 L 32,2 Z" 
     fill="#F7941D" />
  
  <!-- Bottom-left teal segment -->
  <path d="M 32,62 C 32,62 29,62 26,61 C 20,59.5 14,56 9.5,51.5 C 8,50 6.5,48.3 5.3,46.5 C 4,44.5 3,42.5 2.3,40.2 C 2,39 2,38 2,37 L
           15,37 C 15,37.5 15,38 15.3,39 C 16,41 17,43 19,45 C 21,47 23,48 25,48.7 C 26,49 26.5,49 27,49 L 27,62 C 27,62 25,62 24,62 C 23,62 22,62 21,61.7 C 18.5,61 16,60 14,58.7
           C 13,58 12,57.2 11,56.2 C 9,54.2 7.3,52 6,49.7 C 5,48 4.3,46.2 3.8,44.2 C 3.2,42 3,40 3,38 C 3,36 3.2,34 3.8,32
           L 32,32 L 32,62 Z" 
     fill="#006272" />
  
  <!-- Bottom-right orange segment -->
  <path d="M 32,62 C 32,62 35,62 38,61 C 44,59.5 50,56 54.5,51.5 C 56,50 57.5,48.3 58.7,46.5 C 60,44.5 61,42.5 61.7,40.2 C 62,39 62,38 62,37 L
           49,37 C 49,37.5 49,38 48.7,39 C 48,41 47,43 45,45 C 43,47 41,48 39,48.7 C 38,49 37.5,49 37,49 L 37,62 C 37,62 39,62 40,62 C 41,62 42,62 43,61.7 C 45.5,61 48,60 50,58.7
           C 51,58 52,57.2 53,56.2 C 55,54.2 56.7,52 58,49.7 C 59,48 59.7,46.2 60.2,44.2 C 60.8,42 61,40 61,38 C 61,36 60.8,34 60.2,32
           L 32,32 L 32,62 Z" 
     fill="#F7941D" />
  
  <!-- White lines/seams of the basketball -->
  <!-- Vertical line -->
  <path d="M 32,2 L 32,62" fill="none" stroke="white" stroke-width="2" />
  
  <!-- Horizontal line -->
  <path d="M 2,32 L 62,32" fill="none" stroke="white" stroke-width="2" />
  
  <!-- Curved lines creating the basketball panel effect -->
  <!-- Left side curve -->
  <path d="M 15,27 C 15,42 15,42 15,37 C 15,22 39,22 39,37 C 39,42 39,42 39,37 C 39,22 15,22 15,27 Z" 
        fill="none" stroke="white" stroke-width="2" />
  
  <!-- Right side curve -->
  <path d="M 49,27 C 49,42 49,42 49,37 C 49,22 25,22 25,37 C 25,42 25,42 25,37 C 25,22 49,22 49,27 Z" 
        fill="none" stroke="white" stroke-width="2" />
</svg>