<?xml version="1.0" encoding="UTF-8" standalone="no"?>
<svg
   xmlns="http://www.w3.org/2000/svg"
   width="64"
   height="64"
   viewBox="0 0 64 64">
   
  <!-- Basketball with transparent background -->
  
  <!-- Left half (teal color) -->
  <path d="M 32,4 A 28,28 0 0 0 4,32 A 28,28 0 0 0 32,60 L 32,4 Z" 
        fill="#006272" />
  
  <!-- Right half (orange color) -->
  <path d="M 32,4 A 28,28 0 0 1 60,32 A 28,28 0 0 1 32,60 L 32,4 Z" 
        fill="#F7941D" />
  
  <!-- White lines/seams -->
  <!-- Vertical line -->
  <path d="M 32,4 L 32,60" 
        fill="none" stroke="white" stroke-width="2" />
  
  <!-- Horizontal line -->
  <path d="M 4,32 L 60,32" 
        fill="none" stroke="white" stroke-width="2" />
  
  <!-- Left curved seams -->
  <path d="M 13,10 A 40,40 0 0 0 13,54" 
        fill="none" stroke="white" stroke-width="2" />
  
  <!-- Right curved seams -->
  <path d="M 51,10 A 40,40 0 0 1 51,54" 
        fill="none" stroke="white" stroke-width="2" />
</svg>