<?xml version="1.0" encoding="UTF-8" standalone="no"?>
<svg
   xmlns="http://www.w3.org/2000/svg"
   width="64"
   height="64"
   viewBox="0 0 64 64">
   
  <!-- Basketball with transparent background -->
  
  <!-- Left half (teal color) -->
  <path d="M 32,4 A 28,28 0 0 0 4,32 A 28,28 0 0 0 32,60 L 32,4 Z" 
        fill="#006272" />
  
  <!-- Right half (orange color) -->
  <path d="M 32,4 A 28,28 0 0 1 60,32 A 28,28 0 0 1 32,60 L 32,4 Z" 
        fill="#F7941D" />
  
  <!-- White lines/seams -->
  <!-- Main border -->
  <circle cx="32" cy="32" r="28" fill="none" stroke="white" stroke-width="3" />
  
  <!-- Vertical line -->
  <path d="M 32,4 L 32,60" 
        fill="none" stroke="white" stroke-width="3" />
  
  <!-- Horizontal line -->
  <path d="M 4,32 L 60,32" 
        fill="none" stroke="white" stroke-width="3" />
  
  <!-- Curved seams correctly matching the PNG -->
  <!-- Left curved seam -->
  <path d="M 4,15 Q 18,25 32,32" 
        fill="none" stroke="white" stroke-width="3" />
  <path d="M 4,49 Q 18,39 32,32" 
        fill="none" stroke="white" stroke-width="3" />
  
  <!-- Right curved seam -->
  <path d="M 60,15 Q 46,25 32,32" 
        fill="none" stroke="white" stroke-width="3" />
  <path d="M 60,49 Q 46,39 32,32" 
        fill="none" stroke="white" stroke-width="3" />
</svg>