<?xml version="1.0" encoding="UTF-8" standalone="no"?>
<svg
   xmlns="http://www.w3.org/2000/svg"
   width="32"
   height="32"
   viewBox="0 0 32 32"
   version="1.1">
  <g transform="translate(0,0)">
    <!-- Basketball icon with teal and orange segments -->
    <!-- No background circle to ensure transparency -->
    
    <!-- Left half (teal) -->
    <path
      d="M 16,1 A 15,15 0 0,0 16,31 Z"
      style="fill:#006272;stroke:none" />
    
    <!-- Right half (orange) -->
    <path
      d="M 16,1 A 15,15 0 0,1 16,31 Z"
      style="fill:#F7941D;stroke:none" />
    
    <!-- Basketball lines (white) -->
    <path
      d="M 16,1 C 10,3 6,9 5,16 C 9,14 13,11 16,8 C 19,11 23,14 27,16 C 26,9 22,3 16,1 Z"
      style="fill:none;stroke:white;stroke-width:1" />
    <path
      d="M 16,31 C 10,29 6,23 5,16 C 9,18 13,21 16,24 C 19,21 23,18 27,16 C 26,23 22,29 16,31 Z"
      style="fill:none;stroke:white;stroke-width:1" />
  </g>
</svg>