<?xml version="1.0" encoding="UTF-8" standalone="no"?>
<svg
   xmlns="http://www.w3.org/2000/svg"
   width="64"
   height="64"
   viewBox="0 0 64 64">
   
  <!-- Full basketball with transparent background -->
  
  <!-- Main circle - not visible but defines the clipping path -->
  <defs>
    <clipPath id="ballClip">
      <circle cx="32" cy="32" r="28" />
    </clipPath>
  </defs>
  
  <!-- Colored segments -->
  <g clip-path="url(#ballClip)">
    <!-- Left teal quadrants -->
    <!-- Top left -->
    <path d="M 0,0 L 32,0 L 32,32 L 0,32 Z" fill="#006272" />
    <!-- Bottom left -->
    <path d="M 0,32 L 32,32 L 32,64 L 0,64 Z" fill="#006272" />
    
    <!-- Right orange quadrants -->
    <!-- Top right -->
    <path d="M 32,0 L 64,0 L 64,32 L 32,32 Z" fill="#F7941D" />
    <!-- Bottom right -->
    <path d="M 32,32 L 64,32 L 64,64 L 32,64 Z" fill="#F7941D" />
  </g>
  
  <!-- White lines/seams -->
  <circle cx="32" cy="32" r="28" fill="none" stroke="white" stroke-width="2" />
  
  <!-- Vertical line -->
  <line x1="32" y1="4" x2="32" y2="60" stroke="white" stroke-width="2" />
  
  <!-- Horizontal line -->
  <line x1="4" y1="32" x2="60" y2="32" stroke="white" stroke-width="2" />
  
  <!-- Curved seams - these match the exact curve pattern in the PNG -->
  <!-- Left inner curve -->
  <path d="M 16,8 C 12,16 8,20 8,32 C 8,44 12,48 16,56" fill="none" stroke="white" stroke-width="2" />
  
  <!-- Right inner curve -->
  <path d="M 48,8 C 52,16 56,20 56,32 C 56,44 52,48 48,56" fill="none" stroke="white" stroke-width="2" />
</svg>