<?xml version="1.0" encoding="UTF-8" standalone="no"?>
<svg
   xmlns="http://www.w3.org/2000/svg"
   width="128"
   height="128"
   viewBox="0 0 128 128"
   version="1.1">
  
  <!-- Exact tracing of the basketball icon -->
  <!-- Left half, teal -->
  <path
     d="M 64,23 C 60,23 58,23 55,24 C 48,26 40,30 35,35 C 30,40 26,48 24,55 C 23,58 23,60 23,64 C 23,68 23,70 24,73 C 26,80 30,88 35,93 C 40,98 48,102 55,104 C 58,105 60,105 64,105 L 64,23 Z"
     style="fill:#006272;stroke:none" />
     
  <!-- Right half, orange -->
  <path
     d="M 64,23 C 68,23 70,23 73,24 C 80,26 88,30 93,35 C 98,40 102,48 104,55 C 105,58 105,60 105,64 C 105,68 105,70 104,73 C 102,80 98,88 93,93 C 88,98 80,102 73,104 C 70,105 68,105 64,105 L 64,23 Z"
     style="fill:#f59c1b;stroke:none" />
  
  <!-- White seams/lines -->
  <!-- Vertical line through center -->
  <path
     d="M 64,23 L 64,105"
     style="fill:none;stroke:white;stroke-width:2" />
  
  <!-- Horizontal line through center -->
  <path
     d="M 23,64 L 105,64"
     style="fill:none;stroke:white;stroke-width:2" />
  
  <!-- Curved arcs - top left -->
  <path
     d="M 49,24 C 45,30 39,44 39,64"
     style="fill:none;stroke:white;stroke-width:2" />
     
  <!-- Curved arcs - top right -->
  <path
     d="M 79,24 C 83,30 89,44 89,64"
     style="fill:none;stroke:white;stroke-width:2" />
     
  <!-- Curved arcs - bottom left -->
  <path
     d="M 49,104 C 45,98 39,84 39,64"
     style="fill:none;stroke:white;stroke-width:2" />
     
  <!-- Curved arcs - bottom right -->
  <path
     d="M 79,104 C 83,98 89,84 89,64"
     style="fill:none;stroke:white;stroke-width:2" />
</svg>