<?xml version="1.0" encoding="UTF-8" standalone="no"?>
<svg
   xmlns="http://www.w3.org/2000/svg"
   viewBox="0 0 64 64">
  <!-- Temporary medium gray background -->
  <rect x="0" y="0" width="64" height="64" fill="#999999" />
  
  <!-- Rotated background Basketball aligned with diagonal line -->
  <g transform="rotate(40, 32, 32)">
    <!-- Left half (teal color) -->
    <path d="M 32,4 A 28,28 0 0 0 4,32 A 28,28 0 0 0 32,60 L 32,4 Z"
          fill="#006272" />
    <!-- Right half (orange color) -->
    <path d="M 32,4 A 28,28 0 0 1 60,32 A 28,28 0 0 1 32,60 L 32,4 Z"
          fill="#F7941D" />
    <!-- Outer circle -->
  </g>
  
  <!-- Perfect diagonal percent slash line extending to the circle edge -->
  <!-- Using exact math to ensure line touches the circle exactly -->
  <path d="M 13,53 L 51,11" fill="none" stroke="white" stroke-width="5" />
  

<!-- Curved lines 
<path d="M 4,32 Q 24,25 19,22" fill="none" stroke="#F7941D" stroke-width="3" />
<path d="M 32,4 Q 28,20 20,24" fill="none" stroke="#F7941D" stroke-width="3" />

<path d="M 60,32 Q 40,39 45,42" fill="none" stroke="#006272" stroke-width="3" />
<path d="M 32,60 Q 36,44 44,40" fill="none" stroke="#006272" stroke-width="" />
-->

<!-- Curved lines - left -->
<path d="M 4,32 Q 24,25 19,22" fill="none" stroke="#FFFFFF" stroke-width="4" />
<path d="M 32,4 Q 28,20 20,24" fill="none" stroke="#FFFFFF" stroke-width="4" />

<!-- Curved lines - right (mirrored across diagonal) -->
<path d="M 60,32 Q 40,39 45,42" fill="none" stroke="#FFFFFF" stroke-width="4" />
<path d="M 32,60 Q 36,44 44,40" fill="none" stroke="#FFFFFF" stroke-width="4" />

  <!-- Two circles of the percent sign -->
  <circle cx="22" cy="22" r="5" fill="white" />
  <circle cx="42" cy="42" r="5" fill="white" />

<circle cx="32" cy="32" r="28" fill="none" stroke="white" stroke-width="3" />

</svg>