<?xml version="1.0" encoding="UTF-8" standalone="no"?>
<svg
   xmlns="http://www.w3.org/2000/svg"
   width="64"
   height="64"
   viewBox="0 0 64 64">
   
  <!-- Basketball with transparent background and 4px thick lines -->
  
  <!-- Left half (teal color) -->
  <path d="M 32,4 A 28,28 0 0 0 4,32 A 28,28 0 0 0 32,60 L 32,4 Z" 
        fill="#006272" />
  
  <!-- Right half (orange color) -->
  <path d="M 32,4 A 28,28 0 0 1 60,32 A 28,28 0 0 1 32,60 L 32,4 Z" 
        fill="#F7941D" />
  
  <!-- White lines/seams -->
  <!-- Outer circle -->
  <circle cx="32" cy="32" r="28" fill="none" stroke="white" stroke-width="4" />
  
  <!-- Vertical line -->
  <path d="M 32,4 L 32,60" fill="none" stroke="white" stroke-width="4" />
  
  <!-- Horizontal line  -->
  <path d="M 4,32 L 60,32" fill="none" stroke="white" stroke-width="4" />
    <!-- Curved lines - left top quadrant -->

    <!-- Curved lines - left bottom quadrant -->


    <!-- Curved lines - left -->
    <path d="M 13,54 Q 24,32 19,30" fill="none" stroke="white" stroke-width="4" />
    <path d="M 13,12 Q 24,32 19,34" fill="none" stroke="white" stroke-width="4" />

    <!-- Curved lines - right -->
    <path d="M 51,54 Q 40,32 45,30" fill="none" stroke="white" stroke-width="4" />
    <path d="M 51,12 Q 40,32 45,34" fill="none" stroke="white" stroke-width="4" />


</svg>